<?xml version="1.0" standalone="no"?>
<!DOCTYPE svg PUBLIC "-//W3C//DTD SVG 20010904//EN"
 "http://www.w3.org/TR/2001/REC-SVG-20010904/DTD/svg10.dtd">
<svg version="1.0" xmlns="http://www.w3.org/2000/svg"
 width="485.000000pt" height="133.000000pt" viewBox="0 0 485.000000 133.000000"
 preserveAspectRatio="xMidYMid meet">
<metadata>
Created by potrace 1.15, written by Peter Selinger 2001-2017
</metadata>
<g transform="translate(0.000000,133.000000) scale(0.100000,-0.100000)"
fill="#000000" stroke="none">
<path d="M3022 1190 c-200 -42 -303 -190 -319 -458 -16 -268 82 -461 260 -514
72 -22 222 -15 302 13 l70 24 3 232 2 231 -63 7 c-35 4 -74 5 -88 3 -23 -3
-22 -4 14 -25 59 -35 70 -72 65 -231 -3 -132 -3 -134 -31 -158 -63 -54 -204
-58 -296 -8 -98 53 -148 162 -158 344 -13 232 49 380 185 447 51 25 68 28 157
28 84 0 109 -4 152 -24 61 -27 125 -92 142 -144 7 -21 17 -37 22 -37 11 0 11
48 3 153 l-7 76 -81 22 c-90 24 -263 34 -334 19z"/>
<path d="M80 1182 c0 -4 16 -16 36 -27 36 -19 89 -77 115 -125 7 -14 93 -205
190 -425 97 -219 181 -401 186 -402 5 -2 16 12 25 31 l17 34 -200 453 c-110
250 -201 454 -202 455 -9 6 -167 12 -167 6z"/>
<path d="M379 1181 l-56 -6 178 -400 c98 -220 181 -400 184 -400 4 0 43 81 86
180 44 99 83 183 87 187 5 5 60 -116 123 -267 62 -151 119 -275 126 -275 7 0
17 17 24 38 11 37 6 50 -175 482 -103 245 -190 448 -194 451 -12 12 -172 21
-172 11 0 -6 20 -20 44 -32 25 -11 56 -37 71 -56 27 -35 115 -226 115 -249 0
-18 -126 -300 -134 -300 -10 0 -182 384 -212 472 -27 82 -25 116 12 140 50 32
26 38 -107 24z"/>
<path d="M897 1183 c-50 -4 -58 -7 -53 -21 25 -67 332 -792 336 -792 3 0 49
109 104 243 151 371 194 455 260 513 31 27 56 51 56 54 0 3 -70 5 -155 5 -146
0 -181 -5 -135 -20 32 -10 60 -54 60 -95 0 -21 -9 -66 -19 -99 -24 -78 -164
-420 -172 -421 -3 0 -49 106 -103 236 -64 155 -99 254 -103 289 -5 50 -4 54
26 76 54 40 50 41 -102 32z"/>
<path d="M1690 1184 c0 -5 15 -16 33 -24 43 -20 74 -70 82 -133 12 -94 1 -669
-14 -702 -16 -38 -49 -75 -78 -86 -44 -17 -26 -32 30 -25 28 3 71 6 95 6 l42
0 0 480 0 480 -27 0 c-16 0 -58 3 -95 7 -38 3 -68 2 -68 -3z"/>
<path d="M2153 1183 l-193 -3 0 -479 0 -478 97 -6 c87 -6 128 -2 96 10 -36 13
-80 53 -98 88 -17 34 -20 65 -23 198 l-4 159 143 -4 c132 -3 147 -5 177 -26
23 -17 36 -37 44 -68 7 -24 15 -44 20 -44 4 0 7 70 6 155 0 85 -4 155 -9 155
-4 0 -15 -15 -24 -34 -27 -56 -69 -70 -224 -74 l-133 -4 3 186 c3 152 7 189
19 196 24 15 245 12 284 -4 38 -16 71 -57 83 -106 5 -18 15 -36 23 -38 10 -4
12 8 7 58 -4 35 -7 87 -7 116 l0 54 -47 -2 c-27 -2 -135 -4 -240 -5z"/>
<path d="M3672 1178 c9 -7 31 -21 48 -30 62 -35 65 -55 65 -433 0 -305 -2
-345 -18 -387 -19 -48 -66 -98 -93 -98 -8 0 -14 -5 -14 -11 0 -8 18 -10 61 -5
34 3 79 6 100 6 l39 0 0 480 0 480 -39 0 c-21 0 -67 3 -102 6 -54 5 -61 3 -47
-8z"/>
<path d="M3988 1183 l-58 -4 0 -478 0 -479 136 -7 c75 -4 163 -5 194 -2 244
26 384 232 366 539 -15 240 -122 386 -314 427 -49 10 -192 12 -324 4z m297
-68 c170 -44 265 -195 265 -420 0 -195 -70 -330 -202 -391 -58 -27 -72 -29
-173 -29 -122 1 -149 9 -160 52 -10 40 -19 611 -10 698 6 67 9 74 33 84 65 25
164 27 247 6z"/>
<path d="M2681 1040 c-60 -62 -96 -129 -116 -211 -40 -171 4 -355 111 -460
l45 -44 -26 57 c-80 176 -74 478 14 651 16 31 27 57 25 57 -3 0 -27 -22 -53
-50z"/>
<path d="M4600 1063 c0 -6 4 -14 9 -17 16 -10 51 -96 67 -162 20 -86 19 -282
0 -368 -17 -73 -47 -139 -79 -173 -11 -13 -18 -25 -15 -28 9 -10 114 102 140
151 73 134 77 302 11 442 -25 53 -132 178 -133 155z"/>
<path d="M3443 723 l-33 -4 0 -219 0 -218 35 11 35 10 0 141 c0 160 10 207 51
248 16 16 29 31 29 34 0 5 -69 3 -117 -3z"/>
</g>
</svg>
